<?xml version="1.0" standalone="no"?>
<!DOCTYPE svg PUBLIC "-//W3C//DTD SVG 20010904//EN"
 "http://www.w3.org/TR/2001/REC-SVG-20010904/DTD/svg10.dtd">
<svg version="1.0" xmlns="http://www.w3.org/2000/svg"
 width="1280.000000pt" height="1274.000000pt" viewBox="0 0 1280.000000 1274.000000"
 preserveAspectRatio="xMidYMid meet">
<g transform="translate(0.000000,1274.000000) scale(0.100000,-0.100000)"
fill="#000000" stroke="none">
<path d="M12109 12736 c-2 -2 -56 -9 -119 -15 -310 -31 -463 -73 -705 -191
-328 -160 -670 -385 -1495 -985 -228 -166 -455 -328 -505 -362 -191 -129 -409
-235 -750 -368 -411 -159 -477 -186 -561 -227 -97 -49 -189 -118 -216 -163 -9
-17 -118 -287 -242 -600 -629 -1599 -1001 -2455 -1119 -2574 -47 -49 -109 -82
-182 -100 -50 -13 -253 -16 -330 -6 -22 3 -128 17 -235 31 -218 30 -419 36
-489 15 -72 -21 -196 -29 -287 -19 -269 29 -556 189 -530 294 4 14 45 66 91
115 47 49 85 94 85 100 0 17 -84 2 -295 -52 -495 -128 -590 -152 -725 -180
-183 -39 -338 -49 -375 -25 -68 44 -20 115 307 453 82 84 148 158 148 164 0
19 -378 4 -450 -17 -143 -42 -329 -159 -717 -450 -302 -227 -350 -257 -406
-258 l-42 -1 1 60 c0 51 12 90 78 255 105 263 147 382 186 530 29 107 34 142
34 246 1 116 0 122 -27 160 -55 79 -76 97 -93 83 -8 -7 -83 -101 -167 -208
-366 -474 -470 -598 -576 -688 -84 -71 -124 -91 -146 -73 -22 18 -14 57 37
184 22 56 58 153 80 216 21 63 66 165 99 225 33 61 63 122 66 137 4 20 -7 52
-41 120 -54 109 -92 248 -136 495 -17 98 -34 185 -37 193 -3 8 -14 -23 -25
-70 -87 -386 -407 -1286 -593 -1665 -102 -207 -135 -238 -188 -175 -65 77
-123 311 -207 826 l-40 249 -45 42 c-65 59 -175 98 -213 75 -10 -7 -7 -19 12
-53 54 -98 63 -251 71 -1174 8 -919 21 -1261 51 -1294 2 -2 25 -5 51 -7 96 -8
277 -82 530 -218 78 -42 153 -76 167 -76 14 0 122 21 241 46 l216 46 77 -27
c229 -83 879 -384 1587 -735 522 -259 805 -412 838 -451 53 -65 -6 -173 -272
-499 -231 -282 -257 -326 -248 -418 5 -45 18 -76 70 -161 186 -307 260 -498
288 -745 9 -81 10 -196 3 -455 -12 -486 -11 -648 2 -661 44 -44 184 166 529
790 87 157 173 308 192 337 104 158 382 317 706 403 242 65 347 73 505 39 255
-53 502 -153 1097 -442 480 -233 535 -256 615 -266 79 -10 110 -28 151 -88 69
-100 94 -230 86 -454 -8 -236 -30 -299 -185 -530 -109 -163 -144 -231 -178
-346 -25 -80 -28 -107 -32 -289 -4 -190 -3 -203 18 -252 31 -73 100 -133 306
-267 99 -65 203 -137 232 -162 28 -24 52 -41 52 -38 0 4 -29 55 -64 114 -36
58 -67 118 -71 131 -8 32 27 86 72 115 18 11 32 23 33 26 0 4 -48 10 -107 14
-60 4 -124 12 -143 18 -70 24 -136 159 -147 302 -11 143 30 203 190 279 130
63 196 80 297 80 74 -1 94 -5 154 -32 38 -18 92 -46 120 -63 41 -26 133 -52
205 -59 2 0 39 -35 82 -77 60 -58 79 -72 79 -56 0 36 -61 143 -117 203 -99
108 -227 190 -401 259 -129 52 -146 63 -180 120 -40 67 -37 171 7 351 37 150
58 198 97 229 58 46 105 11 159 -119 43 -105 127 -225 223 -317 89 -87 100
-82 52 22 -46 100 -90 234 -90 274 0 57 21 60 138 19 59 -20 108 -36 109 -34
2 2 -20 19 -49 38 -171 113 -222 203 -243 420 -6 66 -6 67 23 82 45 23 190 45
386 58 173 12 177 13 156 30 -34 28 -191 74 -438 129 -125 27 -231 54 -235 58
-19 19 -27 96 -27 277 0 148 3 194 13 203 8 6 46 24 85 40 40 17 95 45 124 65
71 46 99 56 165 56 76 0 244 -36 331 -71 51 -20 91 -29 129 -29 65 0 234 36
401 86 88 26 149 37 247 45 161 12 207 27 246 83 17 22 44 49 61 60 41 26 157
32 307 17 191 -20 226 -19 257 9 30 28 72 109 134 255 23 55 47 106 54 114 31
39 162 85 566 196 74 21 147 45 162 53 43 25 117 217 118 307 0 66 54 112 313
271 98 60 196 124 217 142 44 37 123 162 139 219 6 21 11 54 11 73 0 19 8 49
19 65 43 72 192 202 362 316 48 32 96 71 107 86 53 76 100 208 139 393 29 135
34 201 17 207 -6 2 -51 -38 -100 -89 -50 -51 -137 -141 -193 -200 -57 -59
-118 -114 -135 -122 -17 -8 -143 -40 -281 -71 -412 -94 -804 -193 -1080 -272
-417 -120 -1269 -324 -1358 -325 -52 -1 -107 26 -185 91 -70 58 -158 171 -174
223 -16 53 3 76 103 128 86 44 88 51 19 65 -180 37 -1143 505 -1227 596 -38
42 -34 76 15 130 51 57 115 103 257 185 135 77 195 132 221 202 46 126 51 133
248 327 271 266 322 341 405 595 133 408 292 1240 322 1689 10 144 15 173 37
216 35 69 91 139 227 285 181 192 242 267 300 365 73 123 150 225 297 390 127
143 356 366 484 472 39 32 131 108 205 168 449 369 1235 1271 1217 1398 -2 18
-14 25 -68 39 -58 14 -220 24 -231 14z m-4360 -9610 c35 -2 55 -7 60 -17 4 -8
4 -59 0 -114 -3 -55 -2 -149 4 -210 15 -160 15 -169 -6 -173 -10 -2 -78 30
-151 72 -154 88 -167 93 -265 112 -90 17 -105 28 -97 67 7 35 102 180 143 219
55 52 80 60 173 52 47 -4 109 -7 139 -8z"/>
</g>
</svg>
