<?xml version="1.0" standalone="no"?>
<!DOCTYPE svg PUBLIC "-//W3C//DTD SVG 20010904//EN"
 "http://www.w3.org/TR/2001/REC-SVG-20010904/DTD/svg10.dtd">
<svg version="1.0" 
        xmlns="http://www.w3.org/2000/svg" width="1280.000000pt" height="1236.000000pt" viewBox="0 0 1280.000000 1236.000000" preserveAspectRatio="xMidYMid meet">
        <g transform="translate(0.000000,1236.000000) scale(0.100000,-0.100000)" fill="#452525" stroke="none">
                <path d="M2800 12357 c-3 -3 -45 -12 -95 -21 -49 -8 -119 -25 -155 -36 -69
-23 -287 -127 -435 -210 -88 -49 -91 -50 -177 -50 -268 0 -813 -159 -1077
-314 -144 -85 -258 -195 -321 -310 -13 -25 -22 -48 -18 -51 3 -3 50 -13 104
-23 88 -15 99 -20 97 -37 -1 -11 -7 -80 -13 -153 -10 -119 -9 -136 5 -159 24
-36 12 -223 -17 -270 -28 -48 -45 -271 -23 -313 22 -43 11 -233 -17 -272 -15
-21 -22 -57 -29 -152 -9 -110 -8 -129 7 -158 24 -47 13 -230 -16 -270 -16 -21
-22 -54 -30 -149 -11 -129 -13 -139 -35 -139 -18 0 -82 -55 -97 -84 -6 -11
-17 -46 -23 -76 l-11 -55 -66 -6 c-83 -7 -135 -39 -175 -106 -57 -97 -29 -222
65 -287 58 -41 156 -48 226 -18 51 23 60 13 30 -33 -14 -22 -14 -26 0 -47 21
-30 20 -33 -8 -46 -45 -20 -42 -82 5 -97 20 -7 21 -12 15 -79 -3 -39 -19 -260
-36 -491 -54 -748 -59 -808 -69 -818 -5 -5 -17 -7 -27 -5 -16 3 -19 15 -22 86
l-3 82 -30 0 c-19 0 -37 -8 -47 -21 -19 -23 -47 -18 -55 10 -5 19 -60 31 -138
31 -35 0 -39 -2 -44 -33 -4 -19 -5 -47 -3 -63 3 -26 7 -29 43 -32 80 -5 86 -9
83 -50 l-3 -37 -65 0 -65 0 -3 -46 -3 -46 55 -6 c67 -7 76 -12 76 -41 0 -36
-23 -48 -82 -44 l-52 3 -13 -59 c-8 -32 -12 -60 -10 -62 2 -2 43 -7 91 -10 82
-7 88 -6 102 14 20 29 42 28 56 -3 9 -19 19 -25 45 -25 31 0 33 2 34 38 0 20
3 55 7 77 6 34 11 40 32 40 24 0 25 -2 26 -71 1 -39 5 -81 9 -93 4 -15 1 -28
-9 -40 -22 -24 -20 -57 4 -81 51 -51 128 10 94 74 -11 23 -11 31 0 49 9 15 19
106 30 272 60 900 97 1419 101 1440 3 11 18 28 35 37 36 20 40 56 10 83 -24
22 -25 33 -5 55 12 13 13 23 4 48 -16 48 -8 55 34 26 144 -97 333 -12 345 156
5 70 -10 120 -51 166 -37 43 -77 64 -136 73 l-46 6 -6 65 c-6 74 -24 113 -68
153 -17 15 -31 35 -30 45 0 9 4 67 9 127 7 87 6 114 -5 131 -19 30 -21 56 -11
154 5 53 15 96 26 115 26 42 45 280 25 311 -18 28 -20 54 -10 159 5 61 13 98
26 116 14 20 21 57 28 154 9 115 8 130 -9 163 -16 32 -18 50 -11 137 6 73 13
109 29 135 15 26 23 64 30 151 5 64 8 128 5 143 -7 33 -20 32 322 6 278 -21
448 -42 559 -67 62 -14 76 -21 123 -69 94 -94 174 -300 191 -492 5 -53 6 -173
2 -266 -7 -166 -2 -242 13 -202 6 14 10 16 21 7 12 -10 16 -6 21 21 8 38 23
60 36 52 22 -13 6 -331 -28 -549 -10 -60 -16 -132 -15 -160 1 -27 -9 -117 -23
-198 -30 -178 -30 -181 -8 -173 21 9 33 -10 33 -54 0 -59 10 -81 31 -75 17 6
19 0 19 -54 0 -63 13 -78 40 -46 22 27 27 16 32 -69 3 -48 12 -93 21 -107 27
-43 61 -209 57 -279 -2 -36 -3 -132 -3 -215 0 -134 3 -160 27 -240 71 -239
222 -455 439 -629 124 -99 143 -121 232 -266 97 -157 129 -203 304 -425 173
-218 265 -355 330 -489 75 -153 298 -656 347 -785 108 -276 239 -818 309
-1276 14 -93 35 -219 46 -280 53 -296 39 -373 -107 -602 -33 -51 -102 -162
-154 -248 -141 -232 -323 -465 -363 -465 -16 0 -40 195 -31 241 4 17 -1 37
-12 54 l-18 27 -21 -64 c-28 -82 -58 -139 -95 -182 -17 -18 -30 -38 -30 -43 0
-5 -27 -35 -59 -67 l-60 -59 -95 32 c-130 43 -187 39 -222 -15 -14 -20 -13
-20 46 -16 58 4 61 3 96 -32 44 -44 45 -85 2 -100 -22 -8 -41 -3 -110 30 -75
35 -91 39 -163 39 -64 0 -90 -5 -128 -24 -60 -29 -97 -81 -97 -136 1 -32 3
-37 11 -22 16 27 34 20 48 -18 7 -19 24 -49 38 -65 27 -33 26 -53 -6 -69 -19
-11 -29 0 -87 100 -27 46 -151 113 -269 144 -77 20 -81 23 -112 70 -18 28 -33
57 -33 65 0 8 29 30 63 49 51 27 72 45 104 95 52 78 66 123 66 211 -1 179
-132 385 -360 566 -112 90 -311 219 -327 213 -7 -3 -20 -22 -29 -42 -8 -20
-46 -107 -85 -192 -95 -210 -129 -315 -142 -435 -6 -55 -21 -138 -32 -185 -29
-120 -22 -178 36 -292 25 -49 42 -96 39 -104 -9 -23 -52 -9 -89 29 -89 91
-309 331 -382 416 l-83 96 4 125 c4 109 8 133 32 189 25 59 27 72 22 160 -2
55 -12 119 -23 150 -21 62 -103 203 -121 209 -13 4 -40 -77 -68 -201 -13 -59
-16 -108 -13 -190 5 -130 25 -187 87 -252 49 -51 64 -81 57 -111 -9 -35 -28
-30 -75 21 -63 68 -133 181 -223 359 -44 89 -102 195 -129 236 -59 94 -73 144
-64 233 13 139 -47 249 -215 389 -57 48 -108 84 -113 81 -12 -7 -3 -94 23
-226 37 -185 116 -305 248 -375 l58 -31 73 -173 c40 -95 91 -205 112 -244 41
-75 48 -104 26 -104 -17 0 -116 71 -222 158 -137 112 -232 143 -373 122 -42
-7 -80 -14 -84 -17 -9 -5 148 -185 197 -225 93 -78 200 -103 311 -74 157 41
244 1 369 -169 29 -38 96 -116 149 -173 135 -145 128 -180 -21 -100 -183 97
-204 107 -260 114 -108 13 -254 -26 -341 -93 -19 -14 -30 -29 -25 -34 12 -12
185 -87 264 -114 140 -48 210 -42 313 26 49 33 66 39 111 39 106 0 228 -91
340 -254 29 -42 56 -92 59 -111 7 -34 29 -61 124 -149 23 -21 42 -44 42 -50 0
-7 -21 -27 -46 -45 l-47 -32 -71 35 c-93 48 -200 70 -290 61 -71 -7 -176 -40
-176 -55 0 -4 34 -33 75 -64 120 -91 112 -95 -65 -29 -228 85 -438 205 -565
323 -35 33 -67 60 -70 60 -8 0 87 -185 146 -286 138 -235 283 -427 454 -603
182 -187 345 -313 533 -411 l81 -43 53 23 c69 30 115 43 101 29 -23 -23 -147
-89 -167 -89 -12 0 -45 -16 -74 -36 -148 -99 -209 -227 -149 -314 72 -108 268
-113 473 -13 74 36 229 147 299 214 38 36 75 51 75 30 0 -5 -17 -45 -39 -88
-47 -96 -65 -169 -56 -228 31 -212 457 -125 611 126 20 32 40 59 45 59 4 0 54
-16 111 -34 592 -198 1298 -109 2082 263 71 34 133 58 136 54 4 -5 0 -56 -8
-115 -14 -92 -14 -122 -3 -209 29 -235 125 -430 236 -480 45 -21 119 -24 162
-8 67 25 122 109 123 186 0 23 4 45 10 48 5 3 27 -3 49 -15 26 -13 60 -20 96
-20 113 0 186 69 193 183 5 91 4 90 69 56 50 -27 66 -30 116 -27 109 8 180 87
184 203 1 33 6 61 12 63 6 2 23 -5 38 -16 64 -45 164 -48 227 -6 17 10 36 13
64 8 35 -5 42 -3 56 18 22 33 60 186 81 326 19 122 30 135 73 89 27 -29 27
-41 1 -84 -31 -49 -23 -156 16 -233 57 -115 186 -268 198 -237 3 7 8 38 12 68
15 117 -36 264 -124 361 -75 83 -90 122 -45 116 22 -2 34 -16 61 -68 43 -82
122 -163 191 -197 67 -33 154 -37 196 -9 39 25 62 12 110 -58 49 -71 58 -133
27 -193 -31 -62 -36 -112 -16 -179 19 -69 135 -285 150 -281 6 2 21 30 34 63
19 46 24 78 24 144 0 103 -20 162 -85 247 -71 92 -97 153 -64 153 7 0 58 -33
113 -72 54 -40 130 -91 168 -113 115 -67 150 -136 139 -273 -8 -94 10 -144 77
-216 36 -40 188 -156 204 -156 14 0 3 135 -16 195 -19 62 -29 76 -140 191 -65
68 -119 130 -119 139 0 19 33 19 71 0 16 -9 100 -36 187 -61 131 -37 160 -49
177 -71 89 -120 162 -159 317 -175 68 -6 121 -6 149 0 l44 9 -80 77 c-50 48
-103 89 -142 108 -61 30 -67 31 -141 23 -133 -14 -152 -12 -227 24 -38 18
-126 53 -195 78 -215 78 -355 158 -329 189 19 23 48 16 102 -24 48 -35 57 -37
135 -41 46 -2 104 2 130 9 58 14 222 90 222 102 0 16 -121 66 -189 79 -86 15
-153 2 -230 -46 -40 -25 -79 -39 -136 -49 l-80 -14 -70 46 c-98 64 -266 191
-270 205 -2 7 -6 31 -9 53 l-6 42 63 4 c41 2 85 14 132 35 66 30 79 32 215 36
104 3 167 11 224 26 44 12 82 23 84 26 8 8 -82 136 -141 201 -71 77 -145 134
-244 187 -43 23 -78 49 -78 57 0 10 37 24 125 46 153 39 258 79 398 151 96 50
110 54 136 45 29 -12 46 -8 46 9 0 5 -9 9 -20 9 -35 0 -22 16 68 81 106 78
258 227 336 332 32 42 62 77 66 77 4 0 10 -40 13 -89 5 -79 10 -98 51 -179 46
-91 71 -119 146 -158 53 -28 153 -25 210 7 61 33 101 114 108 215 6 93 -9 155
-69 283 -26 58 -45 109 -42 114 3 5 49 -34 102 -85 126 -123 199 -159 323
-160 102 -1 152 14 214 61 117 89 127 245 20 339 -82 72 -178 103 -381 122
-127 12 -163 25 -99 35 210 32 312 72 397 157 71 71 102 144 100 238 -2 159
-76 240 -223 240 -121 0 -196 -56 -337 -252 -76 -105 -113 -149 -113 -135 0 2
11 29 24 58 102 233 92 423 -30 559 -104 115 -278 122 -372 16 -79 -91 -69
-244 30 -464 28 -62 49 -115 46 -117 -3 -3 -49 39 -104 93 -123 122 -189 158
-320 174 -87 11 -91 11 -146 -14 -71 -33 -143 -99 -159 -145 -6 -20 -9 -59 -6
-88 18 -172 168 -263 470 -281 104 -7 142 -18 95 -29 -13 -2 -68 -14 -123 -25
-184 -36 -299 -113 -358 -238 -27 -57 -32 -78 -32 -142 1 -114 40 -177 139
-220 120 -54 267 26 421 230 26 35 50 59 53 52 10 -32 -140 -244 -267 -376
-201 -207 -446 -358 -727 -445 -111 -35 -142 -38 -151 -15 -8 21 13 33 57 35
19 0 43 4 53 8 17 6 17 8 3 20 -37 30 -16 52 59 62 45 6 124 44 125 61 0 3
-24 11 -52 18 -85 19 -88 20 -88 40 0 23 25 43 118 95 39 22 72 46 72 53 0 8
14 27 31 43 18 16 30 31 28 33 -5 4 -146 -10 -191 -19 -30 -6 -39 -4 -44 9
-11 28 4 62 51 114 25 27 45 56 45 64 0 7 7 24 17 37 l16 24 -35 -7 c-59 -11
-68 -2 -68 69 0 41 -5 66 -14 74 -8 7 -17 23 -21 38 l-6 26 -25 -24 c-14 -13
-35 -41 -45 -61 -22 -43 -34 -46 -65 -17 l-22 20 -6 -28 c-14 -56 -31 -84 -56
-90 -14 -3 -34 -12 -44 -19 -17 -11 -23 -11 -35 0 -9 7 -34 23 -55 36 l-39 24
6 -51 c7 -57 2 -62 -52 -53 -27 4 -36 11 -42 33 -11 40 -28 57 -56 57 -14 0
-41 14 -60 30 -18 17 -42 30 -51 30 -20 0 -62 -27 -62 -40 0 -5 -5 -21 -10
-36 l-11 -27 -22 22 c-43 40 -104 22 -121 -36 -6 -18 -15 -23 -41 -23 -27 0
-37 6 -47 27 -29 60 -109 49 -123 -17 -8 -37 -25 -35 -38 4 -7 22 -5 38 12 71
11 23 21 59 21 80 0 32 -7 45 -41 77 l-40 38 25 63 c14 35 28 82 32 105 8 49
16 57 65 66 75 13 119 72 119 157 0 45 -4 55 -35 86 -34 34 -38 35 -89 31 -37
-3 -65 -12 -88 -29 -18 -14 -80 -40 -138 -58 -186 -58 -369 -165 -460 -268
-39 -45 -42 -46 -93 -44 -45 2 -56 -2 -77 -24 -26 -28 -49 -31 -115 -14 -69
17 -131 -2 -192 -59 -27 -26 -52 -55 -56 -66 -6 -15 -13 -17 -44 -11 -56 10
-128 47 -131 68 -5 23 28 107 41 107 5 0 30 16 53 36 48 38 55 67 33 129 -10
27 -8 38 25 103 27 53 42 72 54 70 21 -3 87 36 107 65 18 26 19 66 4 118 -17
56 9 101 305 532 77 112 146 245 171 329 18 65 29 76 52 56 15 -12 16 -5 10
82 -4 52 -16 168 -27 258 -11 89 -18 167 -14 173 3 6 13 8 21 5 15 -6 46 17
36 28 -3 3 -1 12 6 20 6 8 10 20 9 27 -3 15 4 15 37 3 18 -7 19 -6 6 10 -8 9
-34 29 -58 43 -72 42 -101 93 -53 93 30 0 35 38 10 65 -12 13 -19 29 -15 35
13 21 73 40 124 40 90 0 154 -23 371 -132 246 -123 264 -128 307 -71 130 171
230 218 458 217 148 -1 250 -17 470 -75 83 -22 224 -56 315 -75 91 -19 269
-64 395 -100 314 -87 359 -96 500 -96 97 -1 133 4 188 21 l68 22 82 -30 c45
-16 116 -41 158 -56 42 -14 108 -47 145 -71 94 -62 135 -82 183 -90 37 -6 41
-4 50 20 8 19 15 24 28 19 30 -11 282 -147 382 -207 52 -31 102 -56 111 -56 9
0 24 13 33 30 10 16 22 30 27 30 5 0 47 -26 92 -57 46 -31 104 -71 130 -89 66
-45 149 -74 212 -74 53 0 54 0 70 40 18 47 35 50 80 15 59 -45 146 -77 221
-82 65 -5 72 -3 94 20 15 16 25 43 28 72 3 25 9 48 13 50 4 3 50 -20 103 -50
83 -49 97 -54 121 -45 52 20 119 11 239 -31 65 -22 130 -39 145 -37 25 3 27 7
30 50 4 65 17 72 90 53 71 -18 112 -19 112 -4 0 47 -92 128 -206 181 -115 53
-723 371 -816 426 -47 29 -154 87 -236 131 -122 64 -205 119 -439 293 -354
263 -660 484 -903 653 -217 150 -224 156 -209 165 12 8 112 -9 459 -76 543
-105 1081 -240 1630 -409 264 -81 464 -126 481 -107 4 4 9 21 11 37 3 28 5 30
42 28 21 -2 105 -25 185 -53 282 -97 332 -86 264 56 -35 74 -114 158 -227 243
-120 89 -140 101 -298 172 -361 164 -567 231 -1273 414 -203 53 -399 104 -435
115 -36 10 -135 37 -221 59 -209 53 -262 76 -451 193 -191 118 -231 138 -406
209 -91 36 -132 58 -130 67 2 8 35 24 78 37 41 12 87 27 102 33 l27 11 -56
118 c-30 65 -70 139 -89 164 -23 31 -31 52 -27 67 4 15 -6 39 -29 75 -19 28
-54 82 -77 118 -83 132 -222 244 -441 354 -153 77 -243 114 -520 217 -302 112
-365 139 -540 232 -251 135 -317 155 -574 176 -155 12 -246 32 -306 67 -25 14
-108 88 -185 163 -77 75 -187 172 -245 215 -58 44 -260 203 -450 355 -560 448
-913 721 -1120 865 -113 79 -153 121 -194 204 -20 38 -82 147 -139 243 -57 95
-154 261 -215 370 -61 108 -136 237 -167 288 -254 419 -492 663 -786 808 -143
71 -214 96 -319 112 -84 14 -252 24 -260 17z m-1990 -1072 c10 -12 11 -43 6
-127 -3 -61 -9 -115 -12 -119 -3 -5 -21 -9 -40 -9 l-34 0 0 100 c0 113 16 170
48 170 11 0 25 -7 32 -15z m-31 -621 c5 -5 -10 -200 -17 -211 -4 -6 -22 -8
-41 -5 l-34 5 7 104 c3 58 8 109 11 114 5 7 63 2 74 -7z m-42 -681 c-3 -58
-10 -110 -15 -115 -4 -4 -23 -5 -40 -2 -31 6 -32 9 -32 54 0 26 3 75 6 109 l7
61 40 0 40 0 -6 -107z m-38 -540 c0 -38 -4 -88 -7 -113 -7 -43 -8 -45 -42 -45
-31 0 -35 3 -38 30 -2 17 -1 67 3 113 l7 82 39 0 39 0 -1 -67z m-19 -248 c61
-32 78 -129 31 -179 -26 -27 -26 -35 0 -65 l19 -24 56 18 c52 16 58 16 98 1
51 -20 69 -38 91 -90 22 -51 12 -108 -26 -151 -38 -42 -79 -59 -133 -53 -56 7
-99 37 -121 85 -9 21 -24 44 -33 51 -15 11 -15 15 1 42 30 50 -6 87 -78 78
-37 -4 -52 -29 -39 -65 8 -24 6 -32 -16 -54 -14 -15 -35 -41 -48 -58 -44 -58
-141 -66 -202 -14 -85 71 -79 179 13 247 40 30 121 29 163 -1 l31 -22 27 28
27 28 -22 43 c-21 40 -21 46 -8 84 25 72 103 105 169 71z m4927 -4123 c101
-61 158 -115 169 -159 4 -16 -1 -62 -14 -116 -14 -56 -19 -94 -13 -105 15 -29
22 -118 12 -146 -13 -32 1 -202 30 -376 31 -185 36 -333 14 -401 -26 -80 -118
-256 -190 -364 -63 -94 -176 -238 -196 -251 -6 -3 -28 10 -49 31 -95 93 -220
31 -220 -110 0 -37 6 -51 35 -84 41 -45 43 -59 14 -95 -46 -59 -97 -66 -356
-50 -220 13 -256 19 -368 57 -38 13 -93 29 -121 36 -33 8 -62 23 -79 41 l-28
29 33 58 c81 143 202 329 310 472 180 242 215 308 241 456 11 67 8 313 -7 523
-6 71 -4 82 10 82 8 0 28 -18 42 -40 15 -22 31 -40 37 -40 6 0 21 -9 33 -21
17 -16 29 -19 59 -13 20 3 39 13 42 21 3 8 -6 41 -20 73 -21 50 -23 64 -14 85
15 32 30 32 56 -2 20 -27 20 -27 21 -5 0 26 12 29 30 7 7 -8 21 -15 31 -15 10
0 49 -36 90 -85 42 -49 80 -85 91 -85 10 0 18 4 18 9 0 5 6 16 13 23 7 7 18
36 25 64 14 56 10 76 -33 144 -33 52 -27 75 15 66 28 -5 30 -4 20 14 -9 17 -7
22 16 30 14 6 34 9 43 8 13 -2 15 4 13 30 -3 30 -1 33 17 27 15 -4 20 -2 17 7
-54 163 -66 211 -54 225 19 23 61 9 165 -55z m-1240 -2294 c16 -13 7 -28 -16
-28 -25 0 -58 -29 -66 -58 -5 -19 6 -36 67 -98 40 -42 124 -119 186 -172 61
-52 112 -101 112 -108 0 -10 -23 -5 -81 16 -75 28 -90 30 -217 30 -120 0 -141
3 -170 20 -46 28 -74 96 -80 190 -5 98 6 144 38 148 13 2 29 -3 35 -11 10 -14
20 -8 70 39 49 46 63 54 84 49 14 -4 31 -11 38 -17z m641 -126 c24 -16 9 -419
-17 -445 -5 -5 -21 -2 -39 7 -24 12 -32 26 -42 68 -7 29 -21 73 -32 97 -25 58
-100 169 -143 211 -43 41 -44 50 -5 50 25 0 31 -5 40 -38 11 -44 40 -62 100
-62 37 0 40 2 49 38 6 20 11 45 11 54 0 23 52 36 78 20z m-3208 -220 c30 -12
67 -23 83 -27 27 -5 27 -6 27 -88 0 -101 -9 -120 -42 -90 -34 31 -97 67 -150
88 -55 20 -58 33 -31 103 18 49 17 49 113 14z m1152 -59 c18 -16 25 -58 11
-66 -13 -8 -144 45 -140 57 9 26 102 33 129 9z m986 -69 c66 -24 74 -30 91
-68 10 -23 33 -58 50 -78 31 -36 32 -38 16 -67 -12 -24 -22 -31 -46 -31 -19 0
-32 6 -35 18 -29 89 -99 169 -193 216 -104 53 -18 61 117 10z m-207 -201 c42
-25 37 -43 -10 -43 -40 0 -51 11 -43 43 5 21 16 22 53 0z m-1216 -33 c-3 -5
-10 -10 -16 -10 -5 0 -9 5 -9 10 0 6 7 10 16 10 8 0 12 -4 9 -10z m1565 -39
c17 -32 12 -76 -11 -97 -12 -10 -28 -31 -35 -47 -16 -30 -24 -121 -11 -133 4
-4 36 -2 70 5 l62 13 20 -28 c39 -54 89 -105 116 -120 16 -8 56 -20 89 -28 69
-16 110 -39 110 -61 0 -12 -20 -15 -113 -15 -63 0 -201 -3 -308 -7 l-195 -6
-65 54 c-62 53 -129 146 -129 180 0 11 22 24 73 43 40 15 96 42 124 61 52 35
115 111 128 155 16 52 55 68 75 31z m3535 -31 c26 -50 16 -70 -36 -70 -23 0
-24 -9 -4 -37 19 -27 10 -35 -125 -106 -72 -38 -119 -56 -150 -59 -44 -3 -45
-2 -48 29 -3 25 6 43 40 85 24 29 50 64 59 78 14 22 18 23 46 11 48 -20 93 13
93 68 0 20 17 27 77 30 27 1 35 -4 48 -29z m-2718 -263 c62 -202 76 -227 123
-227 14 0 34 -6 44 -13 18 -13 35 -97 20 -97 -5 0 -49 13 -99 29 -49 17 -110
35 -134 41 l-43 11 7 107 c3 59 11 136 16 171 17 112 25 109 66 -22z m-3046
51 c32 -45 81 -137 93 -175 11 -36 -25 -29 -139 27 -56 27 -123 58 -149 70
-28 11 -46 25 -44 32 3 7 36 24 74 38 38 15 78 31 89 38 32 19 43 14 76 -30z
m2686 -139 c0 -60 -3 -109 -8 -109 -18 0 -52 48 -89 125 -21 44 -36 82 -35 85
2 3 32 6 67 6 l63 2 2 -109z m2269 -54 c4 -9 -8 -31 -27 -53 -19 -21 -42 -53
-51 -70 -19 -36 -50 -51 -120 -59 -33 -4 -48 -2 -48 6 0 6 27 45 60 85 46 57
70 78 103 89 55 20 76 20 83 2z m-3022 -36 c49 -23 33 -59 -28 -59 -54 0 -71
23 -40 54 18 19 34 20 68 5z m671 -75 c44 -4 85 -9 92 -13 12 -6 83 -109 83
-120 0 -3 -17 -15 -37 -26 -21 -11 -61 -42 -90 -68 l-52 -49 -148 36 c-81 19
-167 38 -191 42 -74 12 -85 43 -43 119 32 56 151 98 256 90 28 -2 86 -7 130
-11z m2786 -49 c38 -36 105 -86 150 -112 48 -27 79 -52 77 -60 -2 -8 -18 -23
-35 -34 l-33 -21 -120 118 c-116 114 -138 143 -125 164 10 16 14 13 86 -55z
m-3155 32 c15 -15 -33 -46 -119 -76 -48 -17 -97 -36 -109 -42 -16 -9 -46 -9
-117 -1 -53 6 -122 14 -153 17 -66 7 -72 18 -30 58 53 50 78 55 308 53 117 0
216 -4 220 -9z m2926 -52 c10 -59 9 -125 -2 -125 -5 0 -28 7 -51 17 l-41 16 6
45 c8 60 31 94 59 90 17 -2 23 -12 29 -43z m-1965 -35 c63 -21 79 -31 118 -77
26 -29 64 -62 86 -73 45 -24 48 -34 15 -75 l-24 -30 -144 0 c-170 1 -373 22
-388 40 -8 10 -3 18 20 35 43 30 80 99 80 146 0 22 6 46 13 53 18 19 137 9
224 -19z m1629 -42 c9 -6 9 -19 1 -46 -19 -67 -25 -68 -84 -10 -71 70 -69 79
10 71 34 -3 67 -10 73 -15z"/>
                <path d="M3515 3971 c-16 -10 -38 -27 -47 -37 -45 -52 -62 -158 -34 -213 17
-32 75 -87 129 -120 43 -26 40 -27 120 48 27 25 55 58 63 73 31 60 7 175 -47
225 -50 46 -132 57 -184 24z"/>
                <path d="M3155 3661 c-46 -21 -102 -79 -111 -117 -10 -38 2 -111 27 -178 l23
-58 76 4 c123 7 199 63 215 158 25 150 -97 252 -230 191z"/>
                <path d="M3345 3316 c-38 -17 -60 -41 -80 -89 -19 -47 -19 -80 2 -124 16 -34
108 -113 132 -113 22 0 93 64 118 108 21 35 24 50 19 84 -10 61 -43 107 -90
129 -48 22 -61 23 -101 5z"/>
                <path d="M3035 2986 c-40 -18 -83 -66 -94 -103 -10 -35 0 -100 24 -157 l16
-39 61 7 c73 7 124 31 152 69 16 22 21 44 21 98 0 64 -2 71 -31 100 -37 37
-101 48 -149 25z"/>
                <path d="M8726 2074 c-37 -36 -38 -51 -5 -78 35 -30 39 -30 73 -14 26 11 42
41 37 68 -6 38 -76 54 -105 24z"/>
                <path d="M8638 1723 c-25 -6 -24 -74 0 -96 22 -20 73 -22 90 -5 19 19 14 66
-8 88 -19 19 -44 23 -82 13z"/>
                <path d="M8913 1643 c-20 -4 -23 -11 -23 -49 0 -57 33 -94 83 -94 66 0 92 76
42 125 -23 24 -48 28 -102 18z"/>
        </g>
</svg>
